<svg width="35" height="34" viewBox="0 0 35 34" fill="none" xmlns="http://www.w3.org/2000/svg">
<rect x="5.62512" y="9.08545" width="15.75" height="14.5" stroke="black" stroke-linecap="round" stroke-linejoin="round"/>
<path d="M9.00012 9.08553C9.00012 6.41615 11.0148 4.2522 13.5001 4.2522C15.9854 4.2522 18.0001 6.41615 18.0001 9.08553" stroke="black" stroke-linecap="round" stroke-linejoin="round"/>
<rect x="15.0001" y="3.6272" width="20" height="20" rx="10" fill="#5A5AC9"/>
<path d="M26.1497 13.3953C26.4937 13.4513 26.7897 13.5793 27.0377 13.7793C27.2857 13.9713 27.4777 14.2193 27.6137 14.5233C27.7497 14.8193 27.8177 15.1553 27.8177 15.5313C27.8177 16.0193 27.6977 16.4473 27.4577 16.8153C27.2257 17.1913 26.8937 17.4793 26.4617 17.6793C26.0297 17.8873 25.5257 17.9913 24.9497 17.9913C24.3417 17.9913 23.8057 17.8753 23.3417 17.6433C22.8857 17.4193 22.5297 17.0993 22.2737 16.6833L22.9817 15.9753C23.1657 16.2953 23.4137 16.5513 23.7257 16.7433C24.0457 16.9353 24.4537 17.0313 24.9497 17.0313C25.5017 17.0313 25.9337 16.9033 26.2457 16.6473C26.5657 16.3993 26.7257 16.0273 26.7257 15.5313C26.7257 15.0273 26.5537 14.6273 26.2097 14.3313C25.8737 14.0273 25.3817 13.8753 24.7337 13.8753H24.4217V12.9873H24.7577C25.3337 12.9873 25.7737 12.8473 26.0777 12.5673C26.3897 12.2873 26.5457 11.9393 26.5457 11.5233C26.5457 11.2353 26.4777 10.9993 26.3417 10.8153C26.2057 10.6313 26.0217 10.4953 25.7897 10.4073C25.5577 10.3113 25.2897 10.2633 24.9857 10.2633C24.5457 10.2633 24.1577 10.3593 23.8217 10.5513C23.4937 10.7353 23.2377 10.9953 23.0537 11.3313L22.4057 10.6593C22.5497 10.3873 22.7537 10.1513 23.0177 9.95129C23.2897 9.75129 23.6017 9.59529 23.9537 9.48329C24.3137 9.37129 24.6937 9.31529 25.0937 9.31529C25.5977 9.31529 26.0417 9.40329 26.4257 9.57929C26.8177 9.75529 27.1217 10.0033 27.3377 10.3233C27.5537 10.6433 27.6617 11.0193 27.6617 11.4513C27.6617 11.7633 27.6017 12.0593 27.4817 12.3393C27.3617 12.6113 27.1857 12.8433 26.9537 13.0353C26.7297 13.2193 26.4617 13.3393 26.1497 13.3953Z" fill="white"/>
</svg>
