<svg width="35" height="31" viewBox="0 0 35 31" fill="none" xmlns="http://www.w3.org/2000/svg">
<path d="M12.5002 22.8772L10.9897 21.4745C5.62516 16.5118 2.0835 13.2388 2.0835 9.22188C2.0835 5.94886 4.60433 3.3772 7.81266 3.3772C9.62516 3.3772 11.3647 4.23796 12.5002 5.59818C13.6356 4.23796 15.3752 3.3772 17.1877 3.3772C20.396 3.3772 22.9168 5.94886 22.9168 9.22188C22.9168 13.2388 19.3752 16.5118 14.0106 21.4851L12.5002 22.8772Z" stroke="black"/>
<rect x="15.0001" y="0.127197" width="20" height="20" rx="10" fill="#5A5AC9"/>
<path d="M26.1497 9.89529C26.4937 9.95129 26.7897 10.0793 27.0377 10.2793C27.2857 10.4713 27.4777 10.7193 27.6137 11.0233C27.7497 11.3193 27.8177 11.6553 27.8177 12.0313C27.8177 12.5193 27.6977 12.9473 27.4577 13.3153C27.2257 13.6913 26.8937 13.9793 26.4617 14.1793C26.0297 14.3873 25.5257 14.4913 24.9497 14.4913C24.3417 14.4913 23.8057 14.3753 23.3417 14.1433C22.8857 13.9193 22.5297 13.5993 22.2737 13.1833L22.9817 12.4753C23.1657 12.7953 23.4137 13.0513 23.7257 13.2433C24.0457 13.4353 24.4537 13.5313 24.9497 13.5313C25.5017 13.5313 25.9337 13.4033 26.2457 13.1473C26.5657 12.8993 26.7257 12.5273 26.7257 12.0313C26.7257 11.5273 26.5537 11.1273 26.2097 10.8313C25.8737 10.5273 25.3817 10.3753 24.7337 10.3753H24.4217V9.48729H24.7577C25.3337 9.48729 25.7737 9.34729 26.0777 9.06729C26.3897 8.78729 26.5457 8.43929 26.5457 8.02329C26.5457 7.73529 26.4777 7.49929 26.3417 7.31529C26.2057 7.13129 26.0217 6.99529 25.7897 6.90729C25.5577 6.81129 25.2897 6.76329 24.9857 6.76329C24.5457 6.76329 24.1577 6.85929 23.8217 7.05129C23.4937 7.23529 23.2377 7.49529 23.0537 7.83129L22.4057 7.15929C22.5497 6.88729 22.7537 6.65129 23.0177 6.45129C23.2897 6.25129 23.6017 6.09529 23.9537 5.98329C24.3137 5.87129 24.6937 5.81529 25.0937 5.81529C25.5977 5.81529 26.0417 5.90329 26.4257 6.07929C26.8177 6.25529 27.1217 6.50329 27.3377 6.82329C27.5537 7.14329 27.6617 7.51929 27.6617 7.95129C27.6617 8.26329 27.6017 8.55929 27.4817 8.83929C27.3617 9.11129 27.1857 9.34329 26.9537 9.53529C26.7297 9.71929 26.4617 9.83929 26.1497 9.89529Z" fill="white"/>
</svg>
