<svg width="39" height="35" viewBox="0 0 39 35" fill="none" xmlns="http://www.w3.org/2000/svg">
<path d="M21.0001 20.2772H17.7709C15.8165 20.2772 13.9846 18.9394 12.8612 16.6918L10.7974 12.5627C9.67396 10.3151 7.84208 8.97729 5.88774 8.97729L3.00012 8.97729" stroke="black" stroke-linecap="round"/>
<path d="M21.0001 8.97729L17.7709 8.97729C15.8165 8.97729 13.9846 10.4571 12.8612 12.9435L10.7974 17.5111C9.67396 19.9974 7.84208 21.4773 5.88774 21.4773L3.00012 21.4773" stroke="black" stroke-linecap="round"/>
<path d="M19.0001 5.22729L22.0001 8.97729L19.0001 12.7273" stroke="black" stroke-linecap="round"/>
<path d="M19.0001 16.4773L22.0001 20.2273L19.0001 23.9773" stroke="black" stroke-linecap="round"/>
<rect x="19.0001" y="2.72729" width="20" height="20" rx="10" fill="#5A5AC9"/>
<path d="M31.511 14.3674V15.3274L27.203 15.3274V14.3674L28.907 14.3674L28.907 9.68739C28.835 9.78339 28.723 9.88739 28.571 9.99939C28.419 10.1034 28.247 10.2034 28.055 10.2994C27.863 10.3954 27.671 10.4754 27.479 10.5394C27.287 10.5954 27.111 10.6234 26.951 10.6234V9.61539C27.127 9.61539 27.319 9.56739 27.527 9.47139C27.743 9.36739 27.951 9.24739 28.151 9.11139C28.351 8.97539 28.519 8.84739 28.655 8.72739C28.799 8.60739 28.883 8.52339 28.907 8.47539H29.987L29.987 14.3674H31.511Z" fill="white"/>
</svg>
